<svg width="64" height="64" viewBox="0 0 64 64" fill="none" xmlns="http://www.w3.org/2000/svg">
<g opacity="0.7">
<circle cx="32" cy="32" r="32" fill="black" fill-opacity="0.3"/>
<path d="M48 34C49.1046 34 50 33.1046 50 32C50 30.8954 49.1046 30 48 30V34ZM14.5858 30.5858C13.8047 31.3668 13.8047 32.6332 14.5858 33.4142L27.3137 46.1421C28.0948 46.9232 29.3611 46.9232 30.1421 46.1421C30.9232 45.3611 30.9232 44.0948 30.1421 43.3137L18.8284 32L30.1421 20.6863C30.9232 19.9052 30.9232 18.6389 30.1421 17.8579C29.3611 17.0768 28.0948 17.0768 27.3137 17.8579L14.5858 30.5858ZM48 30L16 30V34L48 34V30Z" fill="white"/>
</g>
</svg>
