<svg width="1327" height="1262" viewBox="0 0 1327 1262" fill="none" xmlns="http://www.w3.org/2000/svg">
<g filter="url(#filter0_b_101_3)">
<path d="M1317 526.908C1282.71 634.866 1155.72 726.72 1092.55 834.793C1029.54 941.632 1063.05 1030.17 969.656 1088.39C868.761 1151.28 784.361 1040.51 665.687 1071.31C547.554 1102.8 434.495 1238.45 334.126 1258.38C233.757 1278.32 144.843 1182.4 109.05 1073.11C73.7965 964.519 91.664 842.566 67.3056 722.178C42.9472 601.789 -23.4814 481.731 9.01254 403.03C40.9667 323.633 212.654 326.002 315 255.5C416.65 185.538 447.028 43.0878 539.997 12.1774C632.426 -19.4286 745.399 19.9402 864.163 58.1587C983.467 97.0728 1109.26 134.297 1200.73 214.862C1292.21 295.428 1351.3 418.95 1317 526.908Z" fill="#174E7D"/>
</g>
<defs>
<filter id="filter0_b_101_3" x="-29.7628" y="-29.3518" width="1386.63" height="1320.38" filterUnits="userSpaceOnUse" color-interpolation-filters="sRGB">
<feFlood flood-opacity="0" result="BackgroundImageFix"/>
<feGaussianBlur in="BackgroundImageFix" stdDeviation="15"/>
<feComposite in2="SourceAlpha" operator="in" result="effect1_backgroundBlur_101_3"/>
<feBlend mode="normal" in="SourceGraphic" in2="effect1_backgroundBlur_101_3" result="shape"/>
</filter>
</defs>
</svg>
